<svg width="1600" height="1000" viewBox="0 0 1600 1000" fill="none" xmlns="http://www.w3.org/2000/svg">
  <rect width="1600" height="1000" fill="#F6F3ED"/>
  <path d="M0 760H1600V1000H0V760Z" fill="#E8E1D8"/>
  <path d="M1160 0H1600V1000H1040L1160 0Z" fill="#E5EEE8"/>
  <g opacity="0.35" stroke="#CFC8BE" stroke-width="2">
    <path d="M120 120H1480"/>
    <path d="M120 880H1480"/>
    <path d="M120 120V880"/>
    <path d="M1480 120V880"/>
  </g>
  <g opacity="0.72" transform="translate(900 248)">
    <path d="M12 135C12 58 132 22 277 33C348 38 353 60 435 60C517 60 522 38 593 33C738 22 858 58 858 135C858 177 811 193 813 224C815 259 858 268 858 318C858 396 738 433 593 422C522 417 517 395 435 395C353 395 348 417 277 422C132 433 12 396 12 318C12 268 55 259 57 224C59 193 12 177 12 135Z" fill="#303030"/>
    <g shape-rendering="crispEdges">
      <path d="M111 203H154V160H197V117H240V140H197V183H154V226H111V203Z" fill="#F8F7F3"/>
      <path d="M111 226H154V269H197V312H240V335H197V292H154V249H111V226Z" fill="#F8F7F3"/>
      <path d="M759 203H716V160H673V117H630V140H673V183H716V226H759V203Z" fill="#F8F7F3"/>
      <path d="M759 226H716V269H673V312H630V335H673V292H716V249H759V226Z" fill="#F8F7F3"/>
      <path d="M247 314H270V268H293V222H316V176H339V130H362V176H339V222H316V268H293V314H270V360H247V314Z" fill="#00C97B"/>
      <path d="M508 314H531V268H554V222H577V176H600V130H623V176H600V222H577V268H554V314H531V360H508V314Z" fill="#00C97B"/>
      <path d="M339 210H362V122H508V210H531V251H508V339H362V251H339V210Z" fill="#FF9297"/>
    </g>
  </g>
  <g opacity="0.55">
    <circle cx="262" cy="704" r="8" fill="#00C97B"/>
    <circle cx="320" cy="704" r="8" fill="#303030"/>
    <circle cx="378" cy="704" r="8" fill="#FF9297"/>
  </g>
</svg>
