<svg width="1024" height="1024" viewBox="0 0 1024 1024" fill="none" xmlns="http://www.w3.org/2000/svg">
  <rect width="1024" height="1024" fill="transparent"/>
  <path d="M92 382C92 297 221 257 366 269C441 275 435 304 512 304C589 304 583 275 658 269C803 257 932 297 932 382C932 429 880 447 882 481C884 520 932 529 932 584C932 671 803 713 658 700C583 694 589 668 512 668C435 668 441 694 366 700C221 713 92 671 92 584C92 529 140 520 142 481C144 447 92 429 92 382Z" fill="#343434"/>
  <g shape-rendering="crispEdges">
    <path d="M236 449H282V403H329V357H376V382H329V428H282V474H236V449Z" fill="#F5F5F1"/>
    <path d="M236 474H282V520H329V566H376V591H329V545H282V499H236V474Z" fill="#F5F5F1"/>
    <path d="M788 449H742V403H695V357H648V382H695V428H742V474H788V449Z" fill="#F5F5F1"/>
    <path d="M788 474H742V520H695V566H648V591H695V545H742V499H788V474Z" fill="#F5F5F1"/>
    <path d="M402 556H428V504H454V452H480V400H506V348H532V400H506V452H480V504H454V556H428V608H402V556Z" fill="#00C875"/>
    <path d="M596 556H622V504H648V452H674V400H700V348H726V400H700V452H674V504H648V556H622V608H596V556Z" fill="#00C875"/>
    <path d="M454 441H478V361H562V441H646V482H562V562H478V482H454V441Z" fill="#FF858A"/>
  </g>
</svg>
